<svg xmlns="http://www.w3.org/2000/svg" xmlns:xlink="http://www.w3.org/1999/xlink" width="117" height="117" viewBox="0 0 117 117">
  <defs>
    <filter id="Path_66" x="0" y="0" width="117" height="117" filterUnits="userSpaceOnUse">
      <feOffset dy="12" input="SourceAlpha"/>
      <feGaussianBlur stdDeviation="14.5" result="blur"/>
      <feFlood flood-color="#a0a8ba" flood-opacity="0.2"/>
      <feComposite operator="in" in2="blur"/>
      <feComposite in="SourceGraphic"/>
    </filter>
  </defs>
  <g id="Group_3" data-name="Group 3" transform="translate(-46 -27)">
    <g id="Group_4593" data-name="Group 4593">
      <g transform="matrix(1, 0, 0, 1, 46, 27)" filter="url(#Path_66)">
        <path id="Path_66-2" data-name="Path 66" d="M124.459,0h8.082A10.459,10.459,0,0,1,143,10.459v8.082A10.459,10.459,0,0,1,132.541,29h-8.082A10.459,10.459,0,0,1,114,18.541V10.459A10.459,10.459,0,0,1,124.459,0" transform="translate(-70 32)" fill="#fff" stroke="#e9bc82" stroke-width="1"/>
      </g>
    </g>
    <path id="Path_67" data-name="Path 67" d="M137.515,17.437l.128-.009a.939.939,0,0,1,.613.23.912.912,0,0,1,.309.576l.01.126v4.35h4.35a.943.943,0,0,1,.613.229.915.915,0,0,1,.309.576l.01.127a.937.937,0,0,1-.228.613.927.927,0,0,1-.575.31l-.128.01h-4.35v4.35a.93.93,0,0,1-.8.923l-.128.009a.941.941,0,0,1-.613-.229.914.914,0,0,1-.309-.576l-.01-.127v-4.35h-4.35a.939.939,0,0,1-.613-.23.913.913,0,0,1-.309-.576l-.01-.126a.931.931,0,0,1,.8-.924l.128-.008h4.35V18.36a.935.935,0,0,1,.228-.612.925.925,0,0,1,.575-.311l.128-.009Z" transform="translate(-33.144 49.857)" fill="#e9bc82"/>
  </g>
</svg>
