<svg id="Group_644" data-name="Group 644" xmlns="http://www.w3.org/2000/svg" width="16.857" height="20" viewBox="0 0 16.857 20">
  <g id="alarm">
    <path id="Path_435" data-name="Path 435" d="M138.05,450.529a3.166,3.166,0,0,0,3.1-2.529h-6.193a3.166,3.166,0,0,0,3.1,2.529Zm0,0" transform="translate(-129.708 -430.529)" fill="#353535"/>
    <path id="Path_436" data-name="Path 436" d="M14.814,12.218c-.022,0-.042,0-.064,0A6.732,6.732,0,0,1,9.272,1.563V.843a.843.843,0,0,0-1.686,0v.91A5.9,5.9,0,0,0,2.529,7.586v2.35A5.652,5.652,0,0,1,.516,14.262a1.475,1.475,0,0,0,.959,2.6H15.382a1.474,1.474,0,0,0,.951-2.6,5.655,5.655,0,0,1-1.519-2.037Zm0,0" transform="translate(0 0)" fill="#353535"/>
  </g>
</svg>
