<svg xmlns="http://www.w3.org/2000/svg" width="18.724" height="15.473" viewBox="0 0 18.724 15.473">
  <path id="bus" d="M11.837,7.129,12.9,8.193a2.972,2.972,0,0,0,2.116.876h2.977a.731.731,0,0,0,.731-.731V8.116a5.353,5.353,0,0,0-.4-2.025L16.594,1.824A2.915,2.915,0,0,0,13.884,0H2.926A2.926,2.926,0,0,0,0,2.925v8.159a2.928,2.928,0,0,0,2.868,2.924,2.194,2.194,0,0,0,4.137,0h4.531a2.194,2.194,0,0,0,4.137,0H15.8a2.933,2.933,0,0,0,2.868-2.346.731.731,0,1,0-1.434-.289A1.466,1.466,0,0,1,15.8,12.547h-.126a2.194,2.194,0,0,0-4.137,0H7.006a2.194,2.194,0,0,0-4.136,0,1.465,1.465,0,0,1-1.406-1.461V7.134Zm-.429-1.463H9.18v-4.2h2.229Zm-3.692,0H5.34V1.463H7.717Zm7.522-3.293,1.735,4.267a3.9,3.9,0,0,1,.255.965H15.016a1.52,1.52,0,0,1-1.081-.448L12.871,6.095V1.463h1.012a1.457,1.457,0,0,1,1.355.912Zm-13.776.55A1.463,1.463,0,0,1,2.926,1.463h.951V5.67H1.463ZM13.6,12.547a.731.731,0,1,1-.731.731A.732.732,0,0,1,13.6,12.547Zm-8.667,0a.731.731,0,1,1-.731.731A.732.732,0,0,1,4.937,12.547Zm0,0" transform="translate(0 0)"/>
</svg>
