<svg xmlns="http://www.w3.org/2000/svg" width="42" height="42" viewBox="0 0 42 42">
  <g id="Group_4596" data-name="Group 4596" transform="translate(-167 -760)">
    <g id="Group_4595" data-name="Group 4595">
      <g id="Group_4594" data-name="Group 4594">
        <g id="Group_4593" data-name="Group 4593">
          <circle id="Ellipse_15" data-name="Ellipse 15" cx="21" cy="21" r="21" transform="translate(167 760)" fill="#e9bc82"/>
          <path id="cap" d="M19.8,3.718,13.48,1.308a.3.3,0,1,0-.212.555L18.863,4,14.99,5.472,10.119,3.267a.3.3,0,0,0-.245.541L14.208,5.77,10,7.376,1.13,4,10,.615l2.185.833a.3.3,0,1,0,.212-.555L10.1.02a.3.3,0,0,0-.212,0l-9.7,3.7A.3.3,0,0,0,0,4V5.352a.3.3,0,0,0,.191.277L3.22,6.784V7.813a.3.3,0,1,0,.594,0v-.8L9.891,9.327a.3.3,0,0,0,.212,0l4.581-1.746v4.7a10.061,10.061,0,0,1-10.87-.963V9A.3.3,0,1,0,3.22,9v2.461a.3.3,0,0,0,.111.232,10.653,10.653,0,0,0,11.353,1.253v1.2a1.128,1.128,0,1,0,.594,0V12.633a10.584,10.584,0,0,0,1.385-.939.3.3,0,0,0,.111-.232V6.784L19.8,5.629a.3.3,0,0,0,.191-.277V4a.3.3,0,0,0-.191-.277ZM15.515,15.236a.534.534,0,1,1-.535-.535A.535.535,0,0,1,15.515,15.236ZM.593,4.427,9.7,7.9v.72L.593,5.147Zm9.7,4.192V7.9l4.39-1.674v.72Zm5.886,2.7a9.948,9.948,0,0,1-.9.625V7.354l.9-.344Zm-.9-4.6V6L19.4,4.427v.72Zm0,0" transform="translate(177.501 772.5)" fill="#fff" stroke="#fff" stroke-linecap="round" stroke-linejoin="round" stroke-width="0.3"/>
        </g>
      </g>
    </g>
  </g>
</svg>
