<svg xmlns="http://www.w3.org/2000/svg" width="18.402" height="18.402" viewBox="0 0 18.402 18.402">
  <g id="chat" transform="translate(0)">
    <g id="Group_647" data-name="Group 647" transform="translate(0 0)">
      <g id="Group_646" data-name="Group 646">
        <path id="Path_1152" data-name="Path 1152" d="M16.84,11.019a.719.719,0,0,0-1.333.539l.847,2.094-2.514-1.108a.719.719,0,0,0-.572,0,6.931,6.931,0,0,1-2.736.553A6.228,6.228,0,0,1,4.1,7.265c0-3.213,2.886-5.827,6.433-5.827s6.433,2.614,6.433,5.827a5.862,5.862,0,0,1-.064.824.719.719,0,0,0,1.422.212,7.254,7.254,0,0,0,.08-1.036,6.948,6.948,0,0,0-2.328-5.159A8.169,8.169,0,0,0,10.531,0,8.169,8.169,0,0,0,4.988,2.106a6.986,6.986,0,0,0-2.3,4.541A5.811,5.811,0,0,0,0,11.484a5.577,5.577,0,0,0,1.1,3.332l-1.05,2.6a.719.719,0,0,0,.956.927l3.027-1.334a6.841,6.841,0,0,0,2.4.427l.053,0a6.8,6.8,0,0,0,3.382-.917A6.188,6.188,0,0,0,12.044,14.4a8.272,8.272,0,0,0,1.493-.415l3.856,1.7a.719.719,0,0,0,.956-.927ZM6.434,15.994H6.4a5.391,5.391,0,0,1-2.1-.429.719.719,0,0,0-.572,0l-1.683.742.543-1.343a.719.719,0,0,0-.119-.736,4.2,4.2,0,0,1-1.035-2.748A4.277,4.277,0,0,1,2.767,8.422a7.256,7.256,0,0,0,2.126,3.886,8.035,8.035,0,0,0,5.23,2.213A5.283,5.283,0,0,1,6.434,15.994Z" transform="translate(0 0)"/>
        <circle id="Ellipse_16" data-name="Ellipse 16" cx="0.712" cy="0.712" r="0.712" transform="translate(9.794 6.589)"/>
        <circle id="Ellipse_17" data-name="Ellipse 17" cx="0.712" cy="0.712" r="0.712" transform="translate(12.644 6.589)"/>
        <circle id="Ellipse_18" data-name="Ellipse 18" cx="0.712" cy="0.712" r="0.712" transform="translate(6.886 6.589)"/>
      </g>
    </g>
  </g>
</svg>
