<svg xmlns="http://www.w3.org/2000/svg" width="18.871" height="18.098" viewBox="0 0 18.871 18.098">
  <g id="home" transform="translate(0 -10.492)">
    <g id="Group_645" data-name="Group 645" transform="translate(0 10.492)">
      <path id="Path_1151" data-name="Path 1151" d="M18.657,18.819l-7.681-7.731-.03-.029A2.21,2.21,0,0,0,8,11.052l-.031.029L.217,18.817A.737.737,0,0,0,1.258,19.86l.585-.584v6.365A2.952,2.952,0,0,0,4.792,28.59H7.445a.737.737,0,0,0,.737-.737V21.845h2.58v6.008a.737.737,0,0,0,.737.737h2.58a2.952,2.952,0,0,0,2.949-2.949.737.737,0,1,0-1.474,0,1.476,1.476,0,0,1-1.474,1.474H12.237V21.108a.737.737,0,0,0-.737-.737H7.445a.737.737,0,0,0-.737.737v6.008H4.792a1.476,1.476,0,0,1-1.474-1.474V17.827q0-.011,0-.022l5.674-5.663a.737.737,0,0,1,.956,0l5.606,5.643v4.168a.737.737,0,1,0,1.474,0V19.271l.583.587a.737.737,0,1,0,1.046-1.039Z" transform="translate(0 -10.492)"/>
    </g>
  </g>
</svg>
