<svg xmlns="http://www.w3.org/2000/svg" width="18.702" height="18.702" viewBox="0 0 18.702 18.702">
  <path id="user_1_" data-name="user (1)" d="M18.4,9.2a9.2,9.2,0,0,0-15.57-6.64.545.545,0,0,0,.755.787,8.111,8.111,0,1,1-.176,11.532c.009-.039.019-.077.029-.116s.015-.062.023-.092c.013-.047.027-.092.041-.138.008-.027.016-.055.025-.082.017-.053.036-.1.054-.157.007-.02.013-.04.021-.059q.079-.214.176-.418l.03-.06c.023-.047.046-.095.071-.141.013-.024.027-.048.04-.073.023-.041.045-.083.069-.123s.031-.052.047-.077.046-.076.07-.113l.052-.078c.024-.036.047-.071.072-.106l.057-.078c.025-.034.049-.068.075-.1l.061-.077c.026-.032.051-.064.078-.1l.065-.075.081-.091.069-.073.084-.087.072-.07.087-.083.075-.068.09-.079L5.2,12l.093-.074.081-.062.1-.07.084-.059.1-.066.087-.055.1-.062.089-.052.1-.057.091-.048.106-.053.093-.045.109-.048.1-.041.112-.044.1-.036.115-.039.1-.032.118-.035.1-.028.121-.03.1-.024.125-.025.1-.019.13-.02.1-.015.138-.015.091-.01c.051,0,.1-.007.154-.01l.077-.005q.116-.005.234-.005H9.872a5.239,5.239,0,0,1,4.057,1.917.545.545,0,0,0,.842-.693,6.33,6.33,0,0,0-3.263-2.1,3.484,3.484,0,1,0-4.614,0l-.054.014q-.112.031-.223.066l-.027.008q-.124.04-.246.084l-.075.029c-.056.021-.111.043-.166.065l-.091.039-.146.065-.094.045-.139.069-.093.049-.137.076-.088.05c-.048.028-.1.057-.142.087l-.077.048c-.058.038-.116.076-.173.116l-.039.027q-.1.073-.206.151l-.058.046c-.048.037-.1.075-.142.114l-.073.063c-.041.035-.081.07-.121.105l-.076.07-.112.106L4.02,11.6l-.108.112-.07.075c-.037.04-.073.081-.108.122l-.061.071c-.042.05-.083.1-.124.153l-.038.047q-.079.1-.153.206l-.039.056c-.036.052-.072.1-.106.157l-.051.081c-.029.046-.058.092-.086.139l-.052.09q-.039.068-.076.137l-.05.095q-.036.07-.07.14l-.046.1c-.023.05-.045.1-.067.15-.013.03-.027.06-.039.09-.025.059-.048.118-.07.178-.009.023-.018.045-.026.067l0,.01A8.086,8.086,0,0,1,1.09,9.2.545.545,0,1,0,0,9.2a9.2,9.2,0,0,0,15.984,6.215h0A9.175,9.175,0,0,0,18.4,9.2ZM9.2,4.939A2.393,2.393,0,1,1,6.808,7.332,2.4,2.4,0,0,1,9.2,4.939Z" transform="translate(0.15 0.15)" stroke="#000" stroke-width="0.3"/>
</svg>
